<mxfile host="app.diagrams.net" modified="2020-04-01T16:35:00.877Z" agent="5.0 (X11)" etag="-RHOpz45tlHvbvc4GFN7" version="12.9.6" type="github">
  <diagram id="m7FMlcwkblaYLKdV_Ws4" name="Page-1">
    <mxGraphModel dx="1305" dy="752" grid="1" gridSize="10" guides="1" tooltips="1" connect="1" arrows="1" fold="1" page="1" pageScale="1" pageWidth="850" pageHeight="1100" math="0" shadow="0">
      <root>
        <mxCell id="0" />
        <mxCell id="1" parent="0" />
        <mxCell id="M6DnuSitk8M77Cm85_tT-1" value="&amp;lt; state machine&amp;nbsp; &amp;gt; Система выдачи виз" style="rounded=0;whiteSpace=wrap;html=1;" parent="1" vertex="1">
          <mxGeometry x="40" y="40" width="240" height="30" as="geometry" />
        </mxCell>
        <mxCell id="M6DnuSitk8M77Cm85_tT-2" value="" style="ellipse;html=1;shape=endState;fillColor=#000000;strokeColor=#000000;" parent="1" vertex="1">
          <mxGeometry x="80" y="785" width="30" height="30" as="geometry" />
        </mxCell>
        <mxCell id="M6DnuSitk8M77Cm85_tT-3" value="" style="ellipse;html=1;shape=endState;fillColor=#000000;strokeColor=#FFFFFF;" parent="1" vertex="1">
          <mxGeometry x="40" y="155" width="30" height="30" as="geometry" />
        </mxCell>
        <mxCell id="M6DnuSitk8M77Cm85_tT-4" value="" style="rounded=1;whiteSpace=wrap;html=1;strokeColor=#000000;" parent="1" vertex="1">
          <mxGeometry x="430" y="135" width="120" height="70" as="geometry" />
        </mxCell>
        <mxCell id="M6DnuSitk8M77Cm85_tT-5" value="&lt;div&gt;Сбор необходимых справок&lt;/div&gt;" style="text;html=1;strokeColor=none;fillColor=none;align=center;verticalAlign=middle;whiteSpace=wrap;rounded=0;" parent="1" vertex="1">
          <mxGeometry x="430" y="150" width="120" height="40" as="geometry" />
        </mxCell>
        <mxCell id="M6DnuSitk8M77Cm85_tT-6" value="" style="rounded=1;whiteSpace=wrap;html=1;strokeColor=#000000;" parent="1" vertex="1">
          <mxGeometry x="630" y="110" width="171" height="140" as="geometry" />
        </mxCell>
        <mxCell id="M6DnuSitk8M77Cm85_tT-7" value="Создание фотографий для визы" style="rounded=1;whiteSpace=wrap;html=1;strokeColor=#000000;" parent="1" vertex="1">
          <mxGeometry x="650" y="300" width="120" height="60" as="geometry" />
        </mxCell>
        <mxCell id="M6DnuSitk8M77Cm85_tT-8" value="Сдача биометрии" style="rounded=1;whiteSpace=wrap;html=1;strokeColor=#000000;" parent="1" vertex="1">
          <mxGeometry x="650" y="770" width="120" height="60" as="geometry" />
        </mxCell>
        <mxCell id="M6DnuSitk8M77Cm85_tT-9" value="Оплата гос. пошлины" style="rounded=1;whiteSpace=wrap;html=1;strokeColor=#000000;" parent="1" vertex="1">
          <mxGeometry x="650" y="620" width="120" height="60" as="geometry" />
        </mxCell>
        <mxCell id="M6DnuSitk8M77Cm85_tT-10" value="Приезд в визовый центр" style="rounded=1;whiteSpace=wrap;html=1;strokeColor=#000000;" parent="1" vertex="1">
          <mxGeometry x="650" y="420" width="120" height="60" as="geometry" />
        </mxCell>
        <mxCell id="M6DnuSitk8M77Cm85_tT-11" value="Подача заявления на визу" style="rounded=1;whiteSpace=wrap;html=1;strokeColor=#000000;" parent="1" vertex="1">
          <mxGeometry x="645" y="520" width="120" height="60" as="geometry" />
        </mxCell>
        <mxCell id="M6DnuSitk8M77Cm85_tT-12" value="Получение номера, по которому можно забрать визу" style="rounded=1;whiteSpace=wrap;html=1;strokeColor=#000000;" parent="1" vertex="1">
          <mxGeometry x="370" y="770" width="120" height="60" as="geometry" />
        </mxCell>
        <mxCell id="M6DnuSitk8M77Cm85_tT-13" value="Получение визы" style="rounded=1;whiteSpace=wrap;html=1;strokeColor=#000000;" parent="1" vertex="1">
          <mxGeometry x="160" y="770" width="120" height="60" as="geometry" />
        </mxCell>
        <mxCell id="M6DnuSitk8M77Cm85_tT-14" value="" style="line;strokeWidth=1;fillColor=none;align=left;verticalAlign=middle;spacingTop=-1;spacingLeft=3;spacingRight=3;rotatable=0;labelPosition=right;points=[];portConstraint=eastwest;" parent="1" vertex="1">
          <mxGeometry x="630" y="170" width="171" height="8" as="geometry" />
        </mxCell>
        <mxCell id="M6DnuSitk8M77Cm85_tT-15" value="&lt;br&gt;entry/ начать сканирование&lt;br&gt;do/ сканировать&lt;br&gt;exit/ закончить сканирование" style="text;html=1;strokeColor=none;fillColor=none;align=center;verticalAlign=middle;whiteSpace=wrap;rounded=0;" parent="1" vertex="1">
          <mxGeometry x="635.5" y="170" width="160" height="70" as="geometry" />
        </mxCell>
        <mxCell id="M6DnuSitk8M77Cm85_tT-16" value="сделать копию необходимых страниц паспорта" style="text;html=1;strokeColor=none;fillColor=none;align=center;verticalAlign=middle;whiteSpace=wrap;rounded=0;" parent="1" vertex="1">
          <mxGeometry x="635" y="120" width="150" height="50" as="geometry" />
        </mxCell>
        <mxCell id="M6DnuSitk8M77Cm85_tT-17" value="" style="endArrow=open;endFill=1;endSize=12;html=1;entryX=0;entryY=0.5;entryDx=0;entryDy=0;" parent="1" target="M6DnuSitk8M77Cm85_tT-32" edge="1">
          <mxGeometry width="160" relative="1" as="geometry">
            <mxPoint x="60" y="169.5" as="sourcePoint" />
            <mxPoint x="160" y="170" as="targetPoint" />
          </mxGeometry>
        </mxCell>
        <mxCell id="M6DnuSitk8M77Cm85_tT-18" value="" style="endArrow=open;endFill=1;endSize=12;html=1;entryX=0;entryY=0.5;entryDx=0;entryDy=0;" parent="1" source="M6DnuSitk8M77Cm85_tT-32" target="M6DnuSitk8M77Cm85_tT-4" edge="1">
          <mxGeometry width="160" relative="1" as="geometry">
            <mxPoint x="230" y="169.5" as="sourcePoint" />
            <mxPoint x="370" y="170" as="targetPoint" />
          </mxGeometry>
        </mxCell>
        <mxCell id="M6DnuSitk8M77Cm85_tT-19" value="" style="endArrow=open;endFill=1;endSize=12;html=1;exitX=0.5;exitY=1;exitDx=0;exitDy=0;entryX=0.5;entryY=0;entryDx=0;entryDy=0;" parent="1" source="M6DnuSitk8M77Cm85_tT-9" target="M6DnuSitk8M77Cm85_tT-8" edge="1">
          <mxGeometry width="160" relative="1" as="geometry">
            <mxPoint x="710" y="774" as="sourcePoint" />
            <mxPoint x="720" y="770" as="targetPoint" />
          </mxGeometry>
        </mxCell>
        <mxCell id="M6DnuSitk8M77Cm85_tT-20" value="[Нет биометрии]" style="text;html=1;strokeColor=none;fillColor=none;align=center;verticalAlign=middle;whiteSpace=wrap;rounded=0;" parent="1" vertex="1">
          <mxGeometry x="725" y="710" width="40" height="20" as="geometry" />
        </mxCell>
        <mxCell id="M6DnuSitk8M77Cm85_tT-21" value="[Есть биометрия]" style="text;html=1;strokeColor=none;fillColor=none;align=center;verticalAlign=middle;whiteSpace=wrap;rounded=0;" parent="1" vertex="1">
          <mxGeometry x="510" y="670" width="40" height="20" as="geometry" />
        </mxCell>
        <mxCell id="M6DnuSitk8M77Cm85_tT-22" value="" style="endArrow=open;endFill=1;endSize=12;html=1;exitX=0;exitY=0.5;exitDx=0;exitDy=0;entryX=0.5;entryY=0;entryDx=0;entryDy=0;" parent="1" source="M6DnuSitk8M77Cm85_tT-9" target="M6DnuSitk8M77Cm85_tT-12" edge="1">
          <mxGeometry width="160" relative="1" as="geometry">
            <mxPoint x="410" y="720" as="sourcePoint" />
            <mxPoint x="570" y="720" as="targetPoint" />
          </mxGeometry>
        </mxCell>
        <mxCell id="M6DnuSitk8M77Cm85_tT-23" value="" style="endArrow=open;endFill=1;endSize=12;html=1;exitX=0;exitY=0.5;exitDx=0;exitDy=0;entryX=1;entryY=0.5;entryDx=0;entryDy=0;" parent="1" source="M6DnuSitk8M77Cm85_tT-8" target="M6DnuSitk8M77Cm85_tT-12" edge="1">
          <mxGeometry width="160" relative="1" as="geometry">
            <mxPoint x="410" y="720" as="sourcePoint" />
            <mxPoint x="570" y="720" as="targetPoint" />
          </mxGeometry>
        </mxCell>
        <mxCell id="M6DnuSitk8M77Cm85_tT-24" value="" style="endArrow=open;endFill=1;endSize=12;html=1;exitX=0;exitY=0.5;exitDx=0;exitDy=0;entryX=1;entryY=0.5;entryDx=0;entryDy=0;" parent="1" source="M6DnuSitk8M77Cm85_tT-12" target="M6DnuSitk8M77Cm85_tT-13" edge="1">
          <mxGeometry width="160" relative="1" as="geometry">
            <mxPoint x="410" y="660" as="sourcePoint" />
            <mxPoint x="570" y="660" as="targetPoint" />
          </mxGeometry>
        </mxCell>
        <mxCell id="M6DnuSitk8M77Cm85_tT-25" value="[есть необходимость в получении визы]" style="text;html=1;strokeColor=none;fillColor=none;align=center;verticalAlign=middle;whiteSpace=wrap;rounded=0;" parent="1" vertex="1">
          <mxGeometry x="40" y="140" width="170" height="20" as="geometry" />
        </mxCell>
        <mxCell id="M6DnuSitk8M77Cm85_tT-26" value="" style="endArrow=open;endFill=1;endSize=12;html=1;exitX=1;exitY=0.5;exitDx=0;exitDy=0;" parent="1" source="M6DnuSitk8M77Cm85_tT-5" edge="1">
          <mxGeometry width="160" relative="1" as="geometry">
            <mxPoint x="390" y="410" as="sourcePoint" />
            <mxPoint x="630" y="170" as="targetPoint" />
          </mxGeometry>
        </mxCell>
        <mxCell id="M6DnuSitk8M77Cm85_tT-27" value="" style="endArrow=open;endFill=1;endSize=12;html=1;entryX=0.5;entryY=0;entryDx=0;entryDy=0;" parent="1" target="M6DnuSitk8M77Cm85_tT-7" edge="1">
          <mxGeometry width="160" relative="1" as="geometry">
            <mxPoint x="710" y="251" as="sourcePoint" />
            <mxPoint x="620" y="410" as="targetPoint" />
          </mxGeometry>
        </mxCell>
        <mxCell id="M6DnuSitk8M77Cm85_tT-28" value="" style="endArrow=open;endFill=1;endSize=12;html=1;exitX=0.5;exitY=1;exitDx=0;exitDy=0;entryX=0.5;entryY=0;entryDx=0;entryDy=0;" parent="1" source="M6DnuSitk8M77Cm85_tT-7" target="M6DnuSitk8M77Cm85_tT-10" edge="1">
          <mxGeometry width="160" relative="1" as="geometry">
            <mxPoint x="440" y="410" as="sourcePoint" />
            <mxPoint x="600" y="410" as="targetPoint" />
          </mxGeometry>
        </mxCell>
        <mxCell id="M6DnuSitk8M77Cm85_tT-29" value="" style="endArrow=open;endFill=1;endSize=12;html=1;exitX=0.5;exitY=1;exitDx=0;exitDy=0;" parent="1" source="M6DnuSitk8M77Cm85_tT-10" edge="1">
          <mxGeometry width="160" relative="1" as="geometry">
            <mxPoint x="590" y="490" as="sourcePoint" />
            <mxPoint x="710" y="520" as="targetPoint" />
          </mxGeometry>
        </mxCell>
        <mxCell id="M6DnuSitk8M77Cm85_tT-30" value="" style="endArrow=open;endFill=1;endSize=12;html=1;exitX=0.5;exitY=1;exitDx=0;exitDy=0;entryX=0.452;entryY=-0.008;entryDx=0;entryDy=0;entryPerimeter=0;" parent="1" source="M6DnuSitk8M77Cm85_tT-11" target="M6DnuSitk8M77Cm85_tT-9" edge="1">
          <mxGeometry width="160" relative="1" as="geometry">
            <mxPoint x="590" y="580" as="sourcePoint" />
            <mxPoint x="580" y="620" as="targetPoint" />
          </mxGeometry>
        </mxCell>
        <mxCell id="M6DnuSitk8M77Cm85_tT-31" value="" style="endArrow=open;endFill=1;endSize=12;html=1;exitX=0;exitY=0.5;exitDx=0;exitDy=0;entryX=1;entryY=0.5;entryDx=0;entryDy=0;" parent="1" source="M6DnuSitk8M77Cm85_tT-13" target="M6DnuSitk8M77Cm85_tT-2" edge="1">
          <mxGeometry width="160" relative="1" as="geometry">
            <mxPoint x="400" y="560" as="sourcePoint" />
            <mxPoint x="560" y="560" as="targetPoint" />
          </mxGeometry>
        </mxCell>
        <mxCell id="M6DnuSitk8M77Cm85_tT-32" value="Составление списка необходимых документов" style="rounded=1;whiteSpace=wrap;html=1;strokeColor=#000000;" parent="1" vertex="1">
          <mxGeometry x="190" y="140" width="120" height="60" as="geometry" />
        </mxCell>
        <mxCell id="M6DnuSitk8M77Cm85_tT-33" value="[в наличии есть не все справки]" style="text;html=1;strokeColor=none;fillColor=none;align=center;verticalAlign=middle;whiteSpace=wrap;rounded=0;" parent="1" vertex="1">
          <mxGeometry x="320" y="140" width="100" height="20" as="geometry" />
        </mxCell>
        <mxCell id="M6DnuSitk8M77Cm85_tT-34" value="" style="endArrow=open;endFill=1;endSize=12;html=1;exitX=1;exitY=0.5;exitDx=0;exitDy=0;" parent="1" source="M6DnuSitk8M77Cm85_tT-32" edge="1">
          <mxGeometry width="160" relative="1" as="geometry">
            <mxPoint x="350" y="240" as="sourcePoint" />
            <mxPoint x="630" y="170" as="targetPoint" />
            <Array as="points">
              <mxPoint x="410" y="230" />
              <mxPoint x="450" y="250" />
              <mxPoint x="490" y="250" />
              <mxPoint x="530" y="250" />
              <mxPoint x="560" y="230" />
            </Array>
          </mxGeometry>
        </mxCell>
        <mxCell id="M6DnuSitk8M77Cm85_tT-35" value="[в наличии есть все справки]" style="text;html=1;strokeColor=none;fillColor=none;align=center;verticalAlign=middle;whiteSpace=wrap;rounded=0;" parent="1" vertex="1">
          <mxGeometry x="425" y="260" width="130" height="20" as="geometry" />
        </mxCell>
        <mxCell id="M6DnuSitk8M77Cm85_tT-36" value="Производство визы" style="text;html=1;strokeColor=none;fillColor=none;align=center;verticalAlign=middle;whiteSpace=wrap;rounded=0;" parent="1" vertex="1">
          <mxGeometry x="270" y="770" width="110" height="20" as="geometry" />
        </mxCell>
        <mxCell id="YeFsBtRL0yMdauP77JG7-1" value="" style="endArrow=open;endFill=1;endSize=12;html=1;entryX=0.5;entryY=0;entryDx=0;entryDy=0;" edge="1" parent="1" source="M6DnuSitk8M77Cm85_tT-3" target="M6DnuSitk8M77Cm85_tT-2">
          <mxGeometry width="160" relative="1" as="geometry">
            <mxPoint x="340" y="430" as="sourcePoint" />
            <mxPoint x="500" y="430" as="targetPoint" />
          </mxGeometry>
        </mxCell>
        <mxCell id="YeFsBtRL0yMdauP77JG7-2" value="[нет необходимости в получении визы]" style="text;html=1;strokeColor=none;fillColor=none;align=center;verticalAlign=middle;whiteSpace=wrap;rounded=0;" vertex="1" parent="1">
          <mxGeometry x="40" y="230" width="170" height="20" as="geometry" />
        </mxCell>
      </root>
    </mxGraphModel>
  </diagram>
</mxfile>
